<?xml version="1.0" encoding="UTF-8"?>
<svg id="uuid-a9209d79-5c90-405a-b5a7-4c454fa88ce6" data-name="Layer 1" xmlns="http://www.w3.org/2000/svg" viewBox="0 0 201 201">
  <defs>
    <style>
      .uuid-dcf13c58-700e-4db5-8a1b-b672a44af65a {
        fill: #fff;
        stroke: #231f20;
        stroke-miterlimit: 10;
      }

      .uuid-26e7312b-aba8-4f4a-87e7-ef1a0ae9bb80 {
        fill: #414042;
        stroke-width: 0px;
      }
    </style>
  </defs>
  <rect class="uuid-dcf13c58-700e-4db5-8a1b-b672a44af65a" x=".5" y=".5" width="200" height="200"/>
  <polygon class="uuid-26e7312b-aba8-4f4a-87e7-ef1a0ae9bb80" points="90.03 90.28 96.26 91.83 86.4 92.29 80.17 90.74 90.03 90.28"/>
  <path class="uuid-26e7312b-aba8-4f4a-87e7-ef1a0ae9bb80" d="m106.24,82.06c-.71-.18-1.48-.25-2.3-.21-1.55.07-2.92.58-4.1,1.52-.23.19-.46.39-.67.61-.19.19-.38.4-.56.62-.02.03-.05.06-.07.09-.13.16-.25.32-.37.49-.13.19-.25.38-.36.57-.11.19-.22.39-.32.59-.1.21-.2.42-.29.63-.09.23-.18.46-.26.7-.08.26-.16.53-.23.81-.08.31-.15.64-.21.97-.07.41-.13.83-.17,1.27-.03.36-.05.73-.06,1.11l-6.23-1.55c0-.38.03-.76.06-1.12.04-.43.1-.85.17-1.26.06-.34.13-.66.21-.97.07-.28.15-.55.23-.81.08-.24.17-.47.26-.7.09-.22.19-.43.29-.63.1-.2.21-.4.32-.59.11-.2.23-.39.36-.57.12-.17.24-.34.37-.5.02-.03.05-.06.07-.09.18-.21.36-.42.56-.61.21-.22.44-.43.67-.62,1.18-.94,2.54-1.44,4.1-1.51.82-.04,1.59.03,2.3.2l6.23,1.56Z"/>
  <path class="uuid-26e7312b-aba8-4f4a-87e7-ef1a0ae9bb80" d="m121.34,87.73v.04c0,.63-.02,1.28-.08,1.93-.05.62-.14,1.24-.25,1.88-.11.62-.25,1.26-.41,1.9-.02.08-.04.16-.07.24-.05.22-.11.45-.18.67-.11.37-.22.75-.35,1.13-.25.75-.53,1.5-.85,2.27-.14.33-.28.67-.43,1-.16.36-.33.73-.52,1.11h0c-.06.13-.12.25-.19.38-.12.25-.26.52-.41.78-.17.33-.36.66-.55.99-.04.07-.09.14-.13.21-.04.08-.09.16-.14.24-.04.08-.1.17-.15.25-.56.93-1.18,1.88-1.87,2.88-1.19,1.72-2.56,3.53-4.12,5.44-.54.65-1.09,1.31-1.67,1.99l-5.93,7-6.23-1.56,5.93-7c.58-.67,1.13-1.34,1.67-1.99.39-.48.77-.95,1.13-1.41.37-.47.73-.93,1.07-1.38.35-.45.67-.9.99-1.34.32-.44.63-.87.93-1.3.2-.29.4-.59.59-.87.58-.86,1.1-1.69,1.58-2.5,0-.02.03-.05.04-.07.23-.38.44-.77.63-1.13.22-.4.43-.79.61-1.17.18-.37.36-.74.52-1.1.15-.34.29-.67.43-1,.32-.77.6-1.53.85-2.28.13-.37.24-.75.35-1.12.07-.23.13-.45.18-.67.03-.08.05-.16.07-.24.03-.11.05-.22.08-.33.11-.45.21-.9.29-1.35.01-.08.03-.15.04-.23.11-.63.19-1.25.25-1.87.06-.65.09-1.3.08-1.93v-.04c0-.7-.05-1.39-.15-2.07-.01-.07-.02-.14-.03-.21-.04-.25-.08-.5-.13-.74-.02-.09-.04-.18-.06-.27-.05-.22-.1-.43-.16-.65-.05-.19-.1-.38-.16-.56-.14-.49-.31-.98-.51-1.47-.09-.24-.2-.48-.31-.72-.21-.49-.45-.97-.72-1.45-.02-.03-.03-.06-.05-.09-.19-.33-.38-.66-.59-.97-.19-.3-.39-.59-.6-.86-.02-.04-.04-.07-.07-.1-.04-.07-.09-.13-.14-.19-.09-.12-.18-.23-.28-.34-.25-.32-.53-.63-.82-.93-.32-.33-.65-.64-.99-.94-.18-.15-.37-.31-.57-.46-.13-.1-.26-.2-.4-.29-.22-.16-.45-.32-.68-.47-.09-.06-.19-.12-.29-.18-.18-.1-.36-.2-.54-.3-.15-.08-.3-.16-.45-.23-.33-.17-.68-.32-1.03-.46-.01,0-.02,0-.03,0-.12-.06-.25-.11-.38-.15-.21-.08-.43-.15-.64-.22-.04-.02-.07-.03-.11-.04-.11-.03-.22-.06-.33-.09l5.78,1.43c.26.07.52.14.78.22.13.04.27.09.4.13.23.08.45.16.67.25l.06.02c.23.08.45.18.66.28.05.02.09.04.14.07.08.03.16.07.24.12h.02c.15.08.3.15.45.23.17.09.34.19.51.3.1.05.2.11.3.18.08.04.15.09.22.14.16.1.31.21.46.33.08.04.15.09.22.15.03.02.06.04.09.07.16.12.32.24.47.38.06.05.13.1.19.16h.02s.07.06.1.09c.27.23.52.47.77.72.04.03.07.07.11.12h0c.28.28.55.58.8.9.05.06.1.12.15.19.04.04.07.08.1.12.02.03.03.05.05.07.06.07.12.15.18.23.22.29.43.6.63.91.21.31.4.64.59.97.02.03.04.06.05.1.13.24.26.48.38.72.07.14.15.29.21.44.1.19.18.37.26.56.18.42.34.84.49,1.26.11.33.21.66.3.99.09.3.16.6.22.89.03.08.04.16.06.25.02.12.04.25.06.37.02.12.04.25.06.37,0,.03.02.06.02.09,0,.03,0,.07.02.1v.03c.04.3.07.61.1.92,0,.06,0,.11,0,.17.02.32.04.65.04.97Z"/>
  <polygon class="uuid-26e7312b-aba8-4f4a-87e7-ef1a0ae9bb80" points="115.82 127.63 122.05 129.19 85.21 130.89 78.98 129.34 115.82 127.63"/>
  <polygon class="uuid-26e7312b-aba8-4f4a-87e7-ef1a0ae9bb80" points="115.76 117.62 121.99 119.18 122.05 129.19 115.82 127.63 115.76 117.62"/>
</svg>