<?xml version="1.0" encoding="utf-8"?>
<!-- Svg Vector Icons : http://www.onlinewebfonts.com/icon -->
<!DOCTYPE svg PUBLIC "-//W3C//DTD SVG 1.1//EN" "http://www.w3.org/Graphics/SVG/1.1/DTD/svg11.dtd">
<svg version="1.1" xmlns="http://www.w3.org/2000/svg" xmlns:xlink="http://www.w3.org/1999/xlink" x="0px" y="0px" viewBox="0 0 256 256" enable-background="new 0 0 256 256" xml:space="preserve">
<metadata> Svg Vector Icons : http://www.onlinewebfonts.com/icon </metadata>
<g><g><g><path fill="#000000" d="M28.9,10.8c-9,2.1-16,9.2-18.2,18.3c-0.6,2.6-0.7,16.1-0.7,98.7c0,62.7,0.1,96.5,0.5,98.2c1.8,9.3,9.2,17,18.6,19.2c4.6,1.1,193.1,1.1,197.7,0c9.2-2.2,16.2-9.2,18.4-18.4c1.1-4.6,1.1-193.1,0-197.7c-2.2-9.4-9.9-16.9-19.2-18.6c-1.7-0.3-35.5-0.5-98.5-0.4C47.6,10.1,31.3,10.2,28.9,10.8z M169.3,127.2c15.1,37.7,27.5,68.8,27.7,69.2c0.2,0.6-1.6,0.7-14.8,0.7h-15.1l-2.9-7.7c-1.6-4.2-4.3-11.3-6-15.8l-3.1-8.1h-27.6H99.8L94,181.3l-5.8,15.8H73.5c-8.1,0-14.8-0.1-14.8-0.3c0-0.3,53.1-137.2,53.5-137.8c0.1-0.2,6.8-0.3,14.9-0.3h14.8L169.3,127.2z"/><path fill="#000000" d="M117.6,116.8c-5,13.7-9,25.1-8.9,25.2c0,0.1,8.5,0.1,18.7,0l18.5-0.1l-9.2-24.6c-5.1-13.6-9.5-24.8-9.7-25C126.8,92,122.6,103.1,117.6,116.8z"/></g></g></g>
</svg>